<?xml version="1.0" standalone="no"?>
<svg xmlns:xlink="http://www.w3.org/1999/xlink" id="wave" style="transform:rotate(0deg); transition: 0.3s" viewBox="0 0 1440 230" version="1.1" xmlns="http://www.w3.org/2000/svg"><defs><linearGradient id="sw-gradient-0" x1="0" x2="0" y1="1" y2="0"><stop stop-color="rgba(243, 106, 62, 1)" offset="0%"/><stop stop-color="rgba(255, 179, 11, 1)" offset="100%"/></linearGradient></defs><path style="transform:translate(0, 0px); opacity:1" fill="url(#sw-gradient-0)" d="M0,184L40,168.7C80,153,160,123,240,99.7C320,77,400,61,480,69C560,77,640,107,720,111.2C800,115,880,92,960,72.8C1040,54,1120,38,1200,34.5C1280,31,1360,38,1440,34.5C1520,31,1600,15,1680,42.2C1760,69,1840,138,1920,172.5C2000,207,2080,207,2160,195.5C2240,184,2320,161,2400,138C2480,115,2560,92,2640,69C2720,46,2800,23,2880,38.3C2960,54,3040,107,3120,107.3C3200,107,3280,54,3360,49.8C3440,46,3520,92,3600,107.3C3680,123,3760,107,3840,118.8C3920,130,4000,169,4080,153.3C4160,138,4240,69,4320,38.3C4400,8,4480,15,4560,30.7C4640,46,4720,69,4800,69C4880,69,4960,46,5040,57.5C5120,69,5200,115,5280,134.2C5360,153,5440,146,5520,118.8C5600,92,5680,46,5720,23L5760,0L5760,230L5720,230C5680,230,5600,230,5520,230C5440,230,5360,230,5280,230C5200,230,5120,230,5040,230C4960,230,4880,230,4800,230C4720,230,4640,230,4560,230C4480,230,4400,230,4320,230C4240,230,4160,230,4080,230C4000,230,3920,230,3840,230C3760,230,3680,230,3600,230C3520,230,3440,230,3360,230C3280,230,3200,230,3120,230C3040,230,2960,230,2880,230C2800,230,2720,230,2640,230C2560,230,2480,230,2400,230C2320,230,2240,230,2160,230C2080,230,2000,230,1920,230C1840,230,1760,230,1680,230C1600,230,1520,230,1440,230C1360,230,1280,230,1200,230C1120,230,1040,230,960,230C880,230,800,230,720,230C640,230,560,230,480,230C400,230,320,230,240,230C160,230,80,230,40,230L0,230Z"/></svg>